<svg width="634" height="344" viewBox="0 0 634 344" fill="none" xmlns="http://www.w3.org/2000/svg">
<path d="M63.154 340.76V194.075C63.1639 178.849 69.2442 164.25 80.0584 153.487C90.8727 142.724 105.536 136.678 120.824 136.678H165.99" stroke="#1D3557" stroke-width="6" stroke-linecap="round" stroke-linejoin="round"/>
<path d="M231.045 212.822C231.045 212.822 235.966 227.502 236.688 234.608" stroke="#1D3557" stroke-width="8" stroke-linecap="round" stroke-linejoin="round"/>
<path d="M291.63 207.508C291.188 216.748 291.342 226.007 292.09 235.228" stroke="#1D3557" stroke-width="8" stroke-linecap="round" stroke-linejoin="round"/>
<path d="M337.96 160.888C339.677 162.651 340.34 187.055 355.847 186.766" stroke="#1D3557" stroke-width="6" stroke-linecap="round" stroke-linejoin="round"/>
<path d="M170.368 168.399C163.577 171.385 153.783 177.186 145.905 189.203C157.009 184.66 195.217 218.686 222.3 210.968C209.708 209.638 182.724 189.946 170.368 168.399Z" fill="#1D3557"/>
<path d="M192.435 114.111C159.571 129.691 159.119 151.589 170.289 170.629C164.427 171.55 150.238 179.507 120.211 221.733C76.9818 282.52 79.0549 339.24 163.141 340.685" stroke="#1D3557" stroke-width="6" stroke-linecap="round" stroke-linejoin="round"/>
<path d="M323.821 249.346V249.106C422.888 258.484 420.015 215.506 409.649 172.301L383.627 86.6104C379.792 78.2775 376.363 81.8452 374.92 79.2396C371.582 73.153 370.255 70.4814 370.255 70.4814C358.082 80.7509 333.768 76.2624 333.768 76.2624C333.768 76.2624 333.561 78.4798 333.391 85.2601C333.221 92.0404 325.637 91.0411 326.529 100.051L337.931 160.884L306.249 154.157C304.222 143.111 299.056 126.351 286.634 115.755" stroke="#1D3557" stroke-width="6" stroke-linecap="round" stroke-linejoin="round"/>
<path d="M328.449 340.467L327.934 305.145" stroke="#1D3557" stroke-width="6" stroke-linecap="round" stroke-linejoin="round"/>
<path d="M321.056 157.3C316.055 155.235 309.384 154.463 305.018 153.765C305.842 157.905 306.203 162.123 306.096 166.343C305.155 188.096 296.609 196.586 294.574 204.597C320.84 194.955 322.888 169.444 321.056 157.3Z" fill="#1D3557"/>
<path d="M281.687 284.453C281.136 289.053 280.074 290.985 269.269 296.519C266.512 297.931 260.703 300.995 252.92 304.88C254.533 324.738 255.408 339.343 255.408 339.343L287.794 339.794C287.794 339.794 286.899 306.598 286.198 272.874C284.403 276.492 282.019 281.653 281.687 284.453Z" fill="#E63946"/>
<path d="M285.473 207.702C285.887 189.909 279.046 172.454 272.433 160.776C271.363 177.021 267.872 195.851 264.181 201.991C246.767 189.962 233.706 183.066 223.266 177.574C216.669 166.983 211.101 157.539 208.696 150.689C208.729 149.652 208.763 148.599 208.796 147.542L207.66 147.654C210.562 157.18 216.823 170.724 229.784 188.918C232.432 191.994 234.858 195.254 237.044 198.671V198.671C240.137 203.498 242.973 217.154 245.44 234.183C259.857 232.188 271.027 231.796 273.054 234.856L285.58 237.243C285.116 213.458 285.253 217.414 285.473 207.702Z" fill="#E63946"/>
<path d="M302.149 267.903L282.881 271.83" stroke="#1D3557" stroke-width="6" stroke-linecap="round" stroke-linejoin="round"/>
<path d="M325.011 295.457C326.628 301.651 330.202 313.568 332.889 313.403C336.704 313.168 334.664 289.379 334.133 282.078C333.872 278.333 331.231 266.284 329.075 260.193C326.259 252.224 313.427 227.956 287.33 236.809L268.477 241.405" stroke="#1D3557" stroke-width="6" stroke-linecap="round" stroke-linejoin="round"/>
<path d="M303.19 263.063C302.775 267.287 300.287 276.169 303.534 282.004" stroke="#1D3557" stroke-width="6" stroke-linecap="round" stroke-linejoin="round"/>
<path d="M328.449 281.616C328.449 281.616 326.413 298.868 320.625 300.198C314.836 301.527 314.467 296.663 314.467 296.663" stroke="#1D3557" stroke-width="6" stroke-linecap="round" stroke-linejoin="round"/>
<path d="M321.504 281.026C321.504 281.026 318.377 296.234 312.502 297.13C306.627 298.026 306.627 293.178 306.627 293.178" stroke="#1D3557" stroke-width="6" stroke-linecap="round" stroke-linejoin="round"/>
<path d="M312.933 280.088C312.933 280.088 308.874 298.319 302.356 291.407C295.838 284.494 296.527 280.972 296.527 280.972C296.527 280.972 299.661 275.963 304.686 283.961" stroke="#1D3557" stroke-width="6" stroke-linecap="round" stroke-linejoin="round"/>
<path d="M281.948 281.55C267.291 269.707 262.32 239.881 268.514 233.353C268.763 231.288 273.523 234.777 276.392 235.095C283.317 235.863 286.302 236.074 286.302 236.074C283.495 244.671 286.621 255.069 289.834 262.464C291.213 265.732 292.808 268.905 294.611 271.962C294.059 272.238 291.833 273.333 286.538 275.645C283.487 276.995 282.84 279.275 281.948 281.55Z" fill="#1D3557"/>
<path d="M165.99 236.764C172.462 234.629 189.889 231.672 195.204 243.895" stroke="#1D3557" stroke-width="6" stroke-linecap="round" stroke-linejoin="round"/>
<path d="M165.99 250.745C165.99 250.745 266.557 225.02 273.059 234.839L288.329 268.844C288.329 268.844 282.234 279.849 281.695 284.453C281.156 289.057 280.082 290.985 269.277 296.519C258.472 302.052 202.021 334.347 161.557 340.685" stroke="#1D3557" stroke-width="6" stroke-linecap="round" stroke-linejoin="round"/>
<path d="M209.451 127.676C209.231 134.118 208.941 142.839 208.696 150.68C211.101 157.531 216.669 166.975 223.266 177.566C233.706 183.058 246.755 189.954 264.181 201.983C267.913 195.842 271.363 177.013 272.433 160.768" stroke="#1D3557" stroke-width="6" stroke-linecap="round" stroke-linejoin="round"/>
<path d="M204.144 97.4497C201.021 97.7264 189.337 99.5846 191.813 111.902C193.778 121.701 202.771 120.83 208.157 119.335" stroke="#1D3557" stroke-width="6" stroke-linecap="round" stroke-linejoin="round"/>
<path d="M286.426 74.3753C288.64 91.1939 287.616 109.247 285.883 122.688" stroke="#1D3557" stroke-width="6" stroke-linecap="round" stroke-linejoin="round"/>
<path d="M285.883 122.671C285.157 128.329 284.303 133.164 283.511 136.736" stroke="#1D3557" stroke-width="6" stroke-linecap="round" stroke-linejoin="round"/>
<path d="M213.336 100.394C215.952 103.028 222.968 118.216 224.68 125.298C224.68 125.298 242.04 119.347 266.914 118.984C266.914 118.984 280.476 119.261 285.883 120.896C285.883 120.896 284.714 145.973 273.718 158.96C262.722 171.946 239.474 168.312 228.557 160.504C217.64 152.696 215.848 148.971 213.323 140.617C210.798 132.264 204.131 101.121 204.131 101.121L213.336 100.394Z" stroke="#1D3557" stroke-width="6" stroke-linecap="round" stroke-linejoin="round"/>
<path d="M260.068 140.667C260.068 140.667 266.848 139.325 269.605 142.009Z" fill="white"/>
<path d="M260.068 140.667C260.068 140.667 266.848 139.325 269.605 142.009" stroke="#1D3557" stroke-width="6" stroke-linecap="round" stroke-linejoin="round"/>
<path d="M268.709 109.33L271.23 131.178L263.493 129.208" stroke="#1D3557" stroke-width="6" stroke-linecap="round" stroke-linejoin="round"/>
<path d="M276.807 115.239C278.048 115.239 279.054 113.688 279.054 111.774C279.054 109.861 278.048 108.31 276.807 108.31C275.566 108.31 274.56 109.861 274.56 111.774C274.56 113.688 275.566 115.239 276.807 115.239Z" fill="#1D3557"/>
<path d="M255.168 114.859C256.409 114.859 257.415 113.308 257.415 111.394C257.415 109.481 256.409 107.93 255.168 107.93C253.926 107.93 252.92 109.481 252.92 111.394C252.92 113.308 253.926 114.859 255.168 114.859Z" fill="#1D3557"/>
<path d="M245.42 93.3205C246.554 91.873 248.058 90.7551 249.774 90.0833C251.49 89.4114 253.355 89.2103 255.176 89.5009" stroke="#1D3557" stroke-width="6" stroke-linecap="round" stroke-linejoin="round"/>
<path d="M275.824 89.121C275.824 89.121 282.044 87.5105 283.615 92.5854" stroke="#1D3557" stroke-width="6" stroke-linecap="round" stroke-linejoin="round"/>
<path d="M300.702 70.8324C300.154 69.2385 300.776 67.2977 301.921 65.3445L301.622 65.0101L300.217 68.9329C300.217 68.9329 295.817 70.82 294.366 65.2165C293.918 63.5029 294.934 61.4135 296.551 59.3447L296.506 59.291C290.39 60.7032 278.441 63.0074 277.362 60.6124C275.841 57.2222 297.401 48.2245 303.969 45.334C307.336 43.8681 318.987 40.6844 325.264 39.776C329.429 39.2486 333.64 39.2029 337.815 39.6397C338.3 35.7973 337.548 31.9007 335.667 28.5113C333.631 24.7702 329.377 19.208 325.6 17.2136C288.163 -2.5616 269.899 30.8402 269.899 30.8402C269.899 30.8402 264.629 16.5157 247.572 16.0037C244.112 15.9109 240.669 16.5222 237.454 17.8002C234.24 19.0783 231.321 20.9961 228.876 23.4364C214.907 37.381 224.22 53.1673 224.22 53.1673C224.22 53.1673 217.714 49.8638 208.941 54.0798C198.459 59.13 193.185 70.9521 195.909 82.2292C198.811 94.2041 204.144 105.605 204.144 105.605C238.209 110.858 246.916 77.5466 241.899 73.248C249.454 78.8143 263.045 82.543 286.065 80.2389C291.335 79.6938 297.799 77.6292 304.38 74.4992C303.107 74.3257 301.626 73.4999 300.702 70.8324Z" fill="#1D3557"/>
<path d="M332.657 67.6363L338.076 89.3605L368.862 80.2926" stroke="#1D3557" stroke-width="6" stroke-linecap="round" stroke-linejoin="round"/>
<path d="M296.522 59.3075C290.407 60.7197 278.457 63.0239 277.379 60.6289C275.857 57.2387 297.418 48.241 303.986 45.3505C307.352 43.8846 319.003 40.7009 325.281 39.7925C333.47 38.6156 363.24 37.8641 367.365 64.3287L371.773 80.6931L342.492 89.3398" stroke="#1D3557" stroke-width="6" stroke-linecap="round" stroke-linejoin="round"/>
<path d="M340.941 63.4574C337.471 65.7368 324.447 71.8729 317.909 71.716" stroke="#1D3557" stroke-width="6" stroke-linecap="round" stroke-linejoin="round"/>
<path d="M306.975 50.0868C306.975 50.0868 292.928 59.6461 294.383 65.2413C295.838 70.8365 300.233 68.9577 300.233 68.9577" stroke="#1D3557" stroke-width="6" stroke-linecap="round" stroke-linejoin="round"/>
<path d="M310.628 55.7976C310.628 55.7976 298.848 65.3693 300.718 70.8323C302.588 76.2954 306.83 74.0903 306.83 74.0903" stroke="#1D3557" stroke-width="6" stroke-linecap="round" stroke-linejoin="round"/>
<path d="M315.322 62.7637C315.322 62.7637 301.34 74.5033 310.284 76.985C319.227 79.4667 321.976 77.2864 321.976 77.2864C321.976 77.2864 324.904 72.3313 315.691 71.6128" stroke="#1D3557" stroke-width="6" stroke-linecap="round" stroke-linejoin="round"/>
<path d="M329.684 91.7389C335.568 99.5061 375.43 93.6549 381.989 83.6207C378.846 79.3263 376.342 81.775 374.941 79.2396C371.603 73.153 370.276 70.4814 370.276 70.4814C363.352 76.3243 352.493 77.3897 344.416 77.2245C340.854 77.1931 337.299 76.9269 333.772 76.4275C333.723 77.0428 333.553 79.508 333.408 85.2642C333.337 88.5965 331.463 90.0542 329.684 91.7389Z" fill="#1D3557"/>
<path d="M547.226 225.425H386.015C384.988 225.424 383.99 225.769 383.184 226.404C382.378 227.039 381.811 227.926 381.575 228.922L359.164 323.409H300.727C300.727 323.409 297.488 340.066 316.375 340.066H522.187C523.215 340.067 524.212 339.721 525.018 339.087C525.824 338.452 526.391 337.565 526.628 336.569L551.663 231.012C551.821 230.345 551.826 229.651 551.677 228.982C551.527 228.313 551.228 227.687 550.802 227.149C550.375 226.612 549.832 226.178 549.212 225.879C548.593 225.58 547.914 225.425 547.226 225.425V225.425Z" fill="#1D3557"/>
<path d="M533.929 265.557C531.522 265.557 529.14 265.06 526.935 264.097C524.731 263.135 522.75 261.727 521.119 259.963C519.488 258.2 518.242 256.118 517.459 253.851C516.677 251.584 516.375 249.179 516.573 246.79C517.195 239.307 517.278 234.699 518.053 231.226C519.115 226.453 528.419 219.883 539.199 211.938C544.868 207.793 548.811 203.932 551.028 200.356C553.245 196.78 554.351 192.345 554.345 187.051C554.345 180.519 552.263 175.378 548.097 171.628C543.931 167.879 538.887 166.001 532.963 165.996C521.196 165.996 513.295 172.202 509.259 184.615C507.931 188.609 505.232 192.01 501.636 194.22C498.04 196.429 493.778 197.307 489.597 196.697C486.919 196.313 484.364 195.33 482.122 193.82C479.881 192.311 478.013 190.314 476.658 187.982C475.304 185.649 474.498 183.041 474.302 180.354C474.105 177.667 474.524 174.97 475.525 172.467C479.375 162.765 484.895 154.828 492.085 148.653C504.001 138.418 518.558 133.299 535.754 133.296C553.301 133.296 568.011 138.327 579.886 148.389C591.761 158.45 597.704 171.204 597.715 186.651C597.715 205.802 587.835 221.821 568.074 234.707C559.474 240.356 554.268 244.769 552.455 247.946C551.754 249.245 551.238 250.635 550.921 252.075C550.025 255.894 547.862 259.3 544.781 261.743C541.701 264.186 537.883 265.522 533.946 265.537L533.929 265.557ZM536.284 317.322H534.692C529.368 317.322 524.262 315.216 520.498 311.467C516.733 307.719 514.617 302.634 514.616 297.332V297.332C514.616 294.706 515.135 292.106 516.144 289.681C517.153 287.255 518.632 285.051 520.496 283.194C522.36 281.338 524.573 279.865 527.009 278.86C529.445 277.855 532.056 277.338 534.692 277.338H536.284C538.92 277.338 541.531 277.855 543.966 278.86C546.402 279.865 548.615 281.338 550.479 283.194C552.343 285.051 553.821 287.255 554.83 289.681C555.838 292.107 556.357 294.707 556.356 297.332V297.332C556.356 302.634 554.242 307.718 550.477 311.467C546.713 315.216 541.608 317.322 536.284 317.322V317.322Z" fill="#E63946"/>
<path d="M124.436 96.4752C123.901 96.7057 123.323 96.8233 122.74 96.8205C122.157 96.8178 121.581 96.6948 121.048 96.4593C120.516 96.2238 120.037 95.8809 119.644 95.4523C119.251 95.0237 118.951 94.5185 118.764 93.9688C118.312 92.7905 117.92 91.59 117.59 90.3721C117.366 89.2118 118.793 86.8623 120.426 84.0626C121.154 82.9266 121.666 81.6668 121.936 80.3462C122.062 79.2253 121.873 78.0913 121.388 77.0717C121.143 76.4207 120.758 75.8308 120.26 75.343C119.763 74.8552 119.164 74.4813 118.507 74.2473C117.227 73.8124 115.828 73.8849 114.601 74.4496C111.986 75.5783 110.83 77.7145 111.135 80.8583C111.225 81.8721 110.954 82.8853 110.369 83.7202C109.785 84.5552 108.924 85.1588 107.938 85.4253V85.4253C107.306 85.5966 106.643 85.623 105.999 85.5024C105.355 85.3819 104.747 85.1175 104.221 84.7291C103.694 84.3408 103.263 83.8387 102.96 83.2605C102.656 82.6823 102.488 82.0431 102.469 81.3909C102.356 79.0215 102.828 76.6606 103.845 74.5157C105.504 71.1021 108.242 68.5709 112.059 66.9219C115.957 65.2372 119.71 64.944 123.32 66.0424C125.029 66.5213 126.606 67.3815 127.932 68.5577C129.257 69.7339 130.296 71.1953 130.97 72.8309C132.825 77.0841 132.18 81.5892 129.034 86.3461C127.668 88.4245 126.937 89.9028 126.841 90.781C126.813 91.1386 126.834 91.4984 126.903 91.8504C127.073 92.7842 126.923 93.7479 126.475 94.5857C126.027 95.4235 125.309 96.0863 124.436 96.467V96.4752ZM129.959 107.744L129.606 107.897C129.021 108.15 128.391 108.286 127.753 108.296C127.115 108.307 126.482 108.192 125.888 107.958C125.295 107.725 124.753 107.377 124.295 106.935C123.837 106.493 123.47 105.965 123.217 105.382V105.382C122.703 104.206 122.679 102.876 123.15 101.682C123.621 100.489 124.549 99.531 125.729 99.0189L126.082 98.8661C126.667 98.613 127.297 98.4773 127.935 98.4668C128.573 98.4562 129.207 98.571 129.8 98.8045C130.393 99.0381 130.935 99.3858 131.393 99.8279C131.851 100.27 132.218 100.798 132.471 101.381C132.985 102.556 133.009 103.887 132.538 105.081C132.067 106.274 131.139 107.232 129.959 107.744V107.744Z" fill="#E63946"/>
<path d="M146.494 43.6038C145.699 43.5616 144.922 43.3555 144.211 42.9986C143.5 42.6417 142.872 42.1418 142.365 41.5305C141.859 40.9191 141.485 40.2097 141.268 39.4472C141.051 38.6846 140.995 37.8854 141.104 37.1002C141.448 34.6433 141.56 33.1278 141.879 31.9964C142.294 30.4438 145.495 28.4452 149.206 26.0254C151.14 24.7619 152.512 23.5603 153.319 22.4206C154.16 21.1317 154.624 19.6344 154.658 18.0972C154.777 15.9417 154.184 14.2088 152.879 12.8984C151.583 11.5894 149.832 10.8265 147.987 10.7677C144.117 10.553 141.4 12.4552 139.835 16.4744C139.323 17.7668 138.371 18.8385 137.145 19.5015C135.919 20.1644 134.498 20.3763 133.13 20.0999V20.0999C132.253 19.9254 131.426 19.5544 130.714 19.015C130.001 18.4756 129.421 17.7819 129.017 16.9863C128.613 16.1908 128.396 15.3142 128.383 14.4228C128.369 13.5315 128.559 12.6488 128.939 11.8413C130.261 8.88649 132.291 6.30015 134.851 4.30953C138.964 1.16026 143.854 -0.26297 149.521 0.039844C155.303 0.359176 160.06 2.28618 163.792 5.82085C167.524 9.35552 169.247 13.6679 168.962 18.7579C168.611 25.0702 165.059 30.1685 158.307 34.0528C155.371 35.7623 153.574 37.1222 152.916 38.1325C152.663 38.5517 152.468 39.0031 152.336 39.4745C151.97 40.7168 151.195 41.8 150.135 42.5493C149.075 43.2985 147.792 43.67 146.494 43.6038V43.6038ZM146.324 60.6991H145.797C144.043 60.601 142.399 59.8137 141.227 58.5101C140.055 57.2064 139.45 55.4928 139.545 53.7454V53.7454C139.589 52.8773 139.805 52.0266 140.181 51.2419C140.556 50.4572 141.083 49.7539 141.732 49.1724C142.38 48.5909 143.138 48.1425 143.961 47.853C144.783 47.5635 145.656 47.4386 146.527 47.4854L147.054 47.5143C147.926 47.5627 148.78 47.7822 149.566 48.1601C150.353 48.538 151.057 49.0669 151.638 49.7164C152.219 50.366 152.665 51.1233 152.951 51.9451C153.238 52.7669 153.358 53.6369 153.306 54.5051V54.5051C153.199 56.2465 152.405 57.8751 151.097 59.0355C149.789 60.1959 148.073 60.7939 146.324 60.6991V60.6991Z" fill="#E63946"/>
<path d="M3 340.685H630.512" stroke="#1D3557" stroke-width="6" stroke-linecap="round" stroke-linejoin="round"/>
</svg>
