<svg width="113" height="37" viewBox="0 0 113 37" fill="none" xmlns="http://www.w3.org/2000/svg">
<path d="M27.976 16.54V21.448C27.976 21.904 28.08 22.256 28.288 22.504C28.504 22.752 28.828 22.876 29.26 22.876C29.692 22.876 30.016 22.752 30.232 22.504C30.456 22.248 30.568 21.896 30.568 21.448V16.54H32.92V21.448C32.92 22.224 32.756 22.888 32.428 23.44C32.1 23.984 31.652 24.396 31.084 24.676C30.524 24.948 29.9 25.084 29.212 25.084C28.524 25.084 27.908 24.948 27.364 24.676C26.828 24.396 26.404 23.984 26.092 23.44C25.788 22.896 25.636 22.232 25.636 21.448V16.54H27.976ZM38.619 18.208C39.395 18.208 40.011 18.468 40.467 18.988C40.923 19.5 41.151 20.196 41.151 21.076V25H38.799V21.388C38.799 21.004 38.699 20.704 38.499 20.488C38.299 20.264 38.031 20.152 37.695 20.152C37.343 20.152 37.067 20.264 36.867 20.488C36.667 20.704 36.567 21.004 36.567 21.388V25H34.215V18.268H36.567V19.228C36.775 18.924 37.055 18.68 37.407 18.496C37.759 18.304 38.163 18.208 38.619 18.208ZM43.6295 17.644C43.2135 17.644 42.8775 17.532 42.6215 17.308C42.3735 17.076 42.2495 16.788 42.2495 16.444C42.2495 16.092 42.3735 15.8 42.6215 15.568C42.8775 15.336 43.2135 15.22 43.6295 15.22C44.0375 15.22 44.3655 15.336 44.6135 15.568C44.8695 15.8 44.9975 16.092 44.9975 16.444C44.9975 16.788 44.8695 17.076 44.6135 17.308C44.3655 17.532 44.0375 17.644 43.6295 17.644ZM44.7935 18.268V25H42.4415V18.268H44.7935ZM49.0009 25.084C48.3929 25.084 47.8489 24.984 47.3689 24.784C46.8969 24.576 46.5209 24.296 46.2409 23.944C45.9689 23.584 45.8169 23.18 45.7849 22.732H48.0649C48.0969 22.948 48.1969 23.116 48.3649 23.236C48.5329 23.356 48.7409 23.416 48.9889 23.416C49.1809 23.416 49.3329 23.376 49.4449 23.296C49.5569 23.216 49.6129 23.112 49.6129 22.984C49.6129 22.816 49.5209 22.692 49.3369 22.612C49.1529 22.532 48.8489 22.444 48.4249 22.348C47.9449 22.252 47.5449 22.144 47.2249 22.024C46.9049 21.904 46.6249 21.708 46.3849 21.436C46.1529 21.164 46.0369 20.796 46.0369 20.332C46.0369 19.932 46.1449 19.572 46.3609 19.252C46.5769 18.924 46.8929 18.664 47.3089 18.472C47.7329 18.28 48.2409 18.184 48.8329 18.184C49.7129 18.184 50.4049 18.4 50.9089 18.832C51.4129 19.264 51.7049 19.832 51.7849 20.536H49.6609C49.6209 20.32 49.5249 20.156 49.3729 20.044C49.2289 19.924 49.0329 19.864 48.7849 19.864C48.5929 19.864 48.4449 19.9 48.3409 19.972C48.2449 20.044 48.1969 20.144 48.1969 20.272C48.1969 20.432 48.2889 20.556 48.4729 20.644C48.6569 20.724 48.9529 20.808 49.3609 20.896C49.8489 21 50.2529 21.116 50.5729 21.244C50.9009 21.372 51.1849 21.58 51.4249 21.868C51.6729 22.148 51.7969 22.532 51.7969 23.02C51.7969 23.412 51.6809 23.764 51.4489 24.076C51.2249 24.388 50.9009 24.636 50.4769 24.82C50.0609 24.996 49.5689 25.084 49.0009 25.084ZM55.3053 19.204C55.4893 18.892 55.7493 18.644 56.0853 18.46C56.4213 18.276 56.8173 18.184 57.2733 18.184C57.8093 18.184 58.2933 18.324 58.7253 18.604C59.1653 18.884 59.5093 19.284 59.7573 19.804C60.0133 20.324 60.1413 20.932 60.1413 21.628C60.1413 22.324 60.0133 22.936 59.7573 23.464C59.5093 23.984 59.1653 24.384 58.7253 24.664C58.2933 24.944 57.8093 25.084 57.2733 25.084C56.8173 25.084 56.4213 24.992 56.0853 24.808C55.7573 24.624 55.4973 24.376 55.3053 24.064V28.216H52.9533V18.268H55.3053V19.204ZM57.7533 21.628C57.7533 21.188 57.6333 20.848 57.3933 20.608C57.1613 20.36 56.8733 20.236 56.5293 20.236C56.1853 20.236 55.8933 20.36 55.6533 20.608C55.4213 20.856 55.3053 21.196 55.3053 21.628C55.3053 22.068 55.4213 22.412 55.6533 22.66C55.8933 22.908 56.1853 23.032 56.5293 23.032C56.8733 23.032 57.1613 22.908 57.3933 22.66C57.6333 22.404 57.7533 22.06 57.7533 21.628ZM60.7255 21.628C60.7255 20.932 60.8495 20.324 61.0975 19.804C61.3535 19.284 61.6975 18.884 62.1295 18.604C62.5695 18.324 63.0575 18.184 63.5935 18.184C64.0575 18.184 64.4575 18.276 64.7935 18.46C65.1295 18.644 65.3895 18.892 65.5735 19.204V18.268H67.9255V25H65.5735V24.064C65.3895 24.376 65.1255 24.624 64.7815 24.808C64.4455 24.992 64.0495 25.084 63.5935 25.084C63.0575 25.084 62.5695 24.944 62.1295 24.664C61.6975 24.384 61.3535 23.984 61.0975 23.464C60.8495 22.936 60.7255 22.324 60.7255 21.628ZM65.5735 21.628C65.5735 21.196 65.4535 20.856 65.2135 20.608C64.9815 20.36 64.6935 20.236 64.3495 20.236C63.9975 20.236 63.7055 20.36 63.4735 20.608C63.2415 20.848 63.1255 21.188 63.1255 21.628C63.1255 22.06 63.2415 22.404 63.4735 22.66C63.7055 22.908 63.9975 23.032 64.3495 23.032C64.6935 23.032 64.9815 22.908 65.2135 22.66C65.4535 22.412 65.5735 22.068 65.5735 21.628ZM78.0618 18.208C78.9098 18.208 79.5738 18.464 80.0538 18.976C80.5418 19.488 80.7858 20.188 80.7858 21.076V25H78.4338V21.388C78.4338 21.028 78.3338 20.748 78.1338 20.548C77.9338 20.348 77.6618 20.248 77.3178 20.248C76.9738 20.248 76.7018 20.348 76.5018 20.548C76.3018 20.748 76.2018 21.028 76.2018 21.388V25H73.8498V21.388C73.8498 21.028 73.7498 20.748 73.5498 20.548C73.3578 20.348 73.0898 20.248 72.7458 20.248C72.3938 20.248 72.1178 20.348 71.9178 20.548C71.7178 20.748 71.6178 21.028 71.6178 21.388V25H69.2658V18.268H71.6178V19.156C71.8258 18.868 72.0938 18.64 72.4218 18.472C72.7578 18.296 73.1418 18.208 73.5738 18.208C74.0698 18.208 74.5098 18.316 74.8938 18.532C75.2858 18.748 75.5938 19.052 75.8178 19.444C76.0578 19.076 76.3738 18.78 76.7658 18.556C77.1578 18.324 77.5898 18.208 78.0618 18.208ZM83.2623 17.644C82.8463 17.644 82.5103 17.532 82.2543 17.308C82.0063 17.076 81.8823 16.788 81.8823 16.444C81.8823 16.092 82.0063 15.8 82.2543 15.568C82.5103 15.336 82.8463 15.22 83.2623 15.22C83.6703 15.22 83.9983 15.336 84.2463 15.568C84.5023 15.8 84.6303 16.092 84.6303 16.444C84.6303 16.788 84.5023 17.076 84.2463 17.308C83.9983 17.532 83.6703 17.644 83.2623 17.644ZM84.4263 18.268V25H82.0743V18.268H84.4263ZM89.4018 20.224H88.3458V25H85.9818V20.224H85.2498V18.268H85.9818V18.208C85.9818 17.344 86.2338 16.684 86.7378 16.228C87.2498 15.764 87.9818 15.532 88.9338 15.532C89.1258 15.532 89.2738 15.536 89.3778 15.544V17.548C89.3138 17.54 89.2258 17.536 89.1138 17.536C88.8578 17.536 88.6698 17.596 88.5498 17.716C88.4298 17.828 88.3618 18.012 88.3458 18.268H89.4018V20.224ZM97.4903 18.268L93.2183 28.204H90.6623L92.2703 24.712L89.5103 18.268H92.1263L93.5423 22.084L94.9103 18.268H97.4903Z" fill="black"/>
<path d="M3 12H19C20.1 12 21 12.9 21 14V26C21 27.1 20.1 28 19 28H3C1.9 28 1 27.1 1 26V14C1 12.9 1.9 12 3 12Z" stroke="black" stroke-width="2" stroke-linecap="round" stroke-linejoin="round"/>
<path d="M21 14L11 21L1 14" stroke="black" stroke-width="2" stroke-linecap="round" stroke-linejoin="round"/>
<path d="M21 28C23.4985 37.8731 90 37 92.5 27" stroke="black" stroke-width="2.2"/>
<rect x="42" y="14" width="3" height="4" fill="white"/>
<rect x="81" y="14" width="4" height="4" fill="white"/>
<path d="M43.812 13.096C43.396 13.096 43.06 12.984 42.804 12.76C42.556 12.528 42.432 12.236 42.432 11.884C42.432 11.532 42.556 11.24 42.804 11.008C43.06 10.776 43.396 10.66 43.812 10.66C44.22 10.66 44.548 10.776 44.796 11.008C45.052 11.24 45.18 11.532 45.18 11.884C45.18 12.228 45.052 12.516 44.796 12.748C44.548 12.98 44.22 13.096 43.812 13.096Z" fill="black"/>
<path d="M82.812 13.096C82.396 13.096 82.06 12.984 81.804 12.76C81.556 12.528 81.432 12.236 81.432 11.884C81.432 11.532 81.556 11.24 81.804 11.008C82.06 10.776 82.396 10.66 82.812 10.66C83.22 10.66 83.548 10.776 83.796 11.008C84.052 11.24 84.18 11.532 84.18 11.884C84.18 12.228 84.052 12.516 83.796 12.748C83.548 12.98 83.22 13.096 82.812 13.096Z" fill="black"/>
</svg>
